name C:\Users\u0101727\Documents\MyRepositories\upper-imu-dc\Results\main_tracking\Case_31\FLX01_linearAccelerations_groundFrame.mot
datacolumns 4
datarows 47
range 0.51000000 0.97000000
endheader 
time	radius_imu_x	radius_imu_y	radius_imu_z	
          0.51000000	         -0.04739517	         11.72644153	          5.13247810	
          0.52000000	          0.31420505	         10.98078241	          3.09353992	
          0.53000000	          0.56925367	         10.59307801	          1.77870595	
          0.54000000	          0.79898789	         10.37064303	          1.01610991	
          0.55000000	          1.01283234	         10.25451084	          0.63648451	
          0.56000000	          1.20150150	         10.20236961	          0.48557674	
          0.57000000	          1.34171733	         10.18569088	          0.45996155	
          0.58000000	          1.41321874	         10.18857809	          0.50596099	
          0.59000000	          1.40733024	         10.20537994	          0.60449013	
          0.60000000	          1.32677352	         10.23677149	          0.75243195	
          0.61000000	          1.18332643	         10.28562812	          0.94466301	
          0.62000000	          0.99715533	         10.35374000	          1.16013316	
          0.63000000	          0.79353628	         10.43928284	          1.35978753	
          0.64000000	          0.59466416	         10.53557472	          1.49920678	
          0.65000000	          0.40996804	         10.63213224	          1.54896446	
          0.66000000	          0.23004219	         10.71759602	          1.51033353	
          0.67000000	          0.02843291	         10.78276388	          1.41638091	
          0.68000000	         -0.22797977	         10.82237523	          1.31780463	
          0.69000000	         -0.56457700	         10.83547903	          1.26238015	
          0.70000000	         -0.98812578	         10.82495657	          1.27939484	
          0.71000000	         -1.48469727	         10.79670363	          1.37512259	
          0.72000000	         -2.02568354	         10.75880567	          1.53769381	
          0.73000000	         -2.57710912	         10.72082147	          1.74584129	
          0.74000000	         -3.10798869	         10.69281526	          1.97707375	
          0.75000000	         -3.59552094	         10.68399901	          2.21320302	
          0.76000000	         -4.02682411	         10.70127713	          2.44275789	
          0.77000000	         -4.39867838	         10.74783568	          2.66105525	
          0.78000000	         -4.71674820	         10.82177580	          2.86932381	
          0.79000000	         -4.99430158	         10.91506465	          3.07368769	
          0.80000000	         -5.24943877	         11.01380210	          3.28350555	
          0.81000000	         -5.50022294	         11.10139116	          3.50800907	
          0.82000000	         -5.75861755	         11.16458788	          3.75125899	
          0.83000000	         -6.02568689	         11.19937510	          4.00709785	
          0.84000000	         -6.29091404	         11.21306332	          4.25681887	
          0.85000000	         -6.53695673	         11.22170322	          4.47185641	
          0.86000000	         -6.74845724	         11.24438807	          4.62178346	
          0.87000000	         -6.91987904	         11.29681383	          4.68389502	
          0.88000000	         -7.05928687	         11.38589003	          4.65084441	
          0.89000000	         -7.18560751	         11.50713958	          4.53185016	
          0.90000000	         -7.32195667	         11.64671257	          4.34719645	
          0.91000000	         -7.48811106	         11.78597034	          4.11847300	
          0.92000000	         -7.69549189	         11.90800972	          3.85902967	
          0.93000000	         -7.94498552	         11.99797696	          3.56939514	
          0.94000000	         -8.22693369	         12.04212105	          3.23700325	
          0.95000000	         -8.52104281	         12.02829856	          2.83795729	
          0.96000000	         -8.79662656	         11.95000349	          2.34082390	
          0.97000000	         -9.01390061	         11.81279344	          1.71447175	
